<?xml version="1.0" encoding="utf-8"?>
<!-- Generator: Adobe Illustrator 25.4.1, SVG Export Plug-In . SVG Version: 6.00 Build 0)  -->
<svg version="1.1" id="Layer_1" xmlns="http://www.w3.org/2000/svg" xmlns:xlink="http://www.w3.org/1999/xlink" x="0px" y="0px"
	 viewBox="0 0 1366 3216.9" style="enable-background:new 0 0 1366 3216.9;" xml:space="preserve">
<style type="text/css">
	.st0{fill:none;stroke:#FFFFFF;stroke-miterlimit:10;}
	.st1{fill:none;stroke:#FFFFFF;stroke-width:3;}
	.st2{fill:#FFA500;}
	.st3{font-family:'AndaleMono';}
	.st4{font-size:45px;}
</style>
<g>
	<g id="Ellipse_1">
		<ellipse class="st0" cx="700.3" cy="244.7" rx="128.1" ry="110.2"/>
		<ellipse class="st1" cx="700.3" cy="244.7" rx="127.3" ry="109.4"/>
	</g>
	<line id="Line_1" class="st1" x1="700.6" y1="355.2" x2="700.6" y2="555.7"/>
	<line id="Line_2" class="st1" x1="700.9" y1="776.3" x2="700.9" y2="976.8"/>
	<g id="Ellipse_3" transform="translate(1 784)">
		<ellipse class="st0" cx="699.9" cy="-117.8" rx="128.1" ry="110.2"/>
		<ellipse class="st1" cx="699.9" cy="-117.8" rx="127.3" ry="109.4"/>
	</g>
	<g id="Ellipse_4" transform="translate(1 1567)">
		<ellipse class="st0" cx="699.9" cy="-480" rx="128.1" ry="110.2"/>
		<ellipse class="st1" cx="699.9" cy="-480" rx="127.3" ry="109.4"/>
	</g>
	<line id="Line_3" class="st1" x1="700.9" y1="1197.2" x2="700.9" y2="1397.7"/>
	<g id="Ellipse_5" transform="translate(1 2350)">
		<ellipse class="st0" cx="699.9" cy="-842.1" rx="128.1" ry="110.2"/>
		<ellipse class="st1" cx="699.9" cy="-842.1" rx="127.3" ry="109.4"/>
	</g>
	<line id="Line_4" class="st1" x1="700.9" y1="1618.1" x2="700.9" y2="1818.6"/>
	<g id="Ellipse_6" transform="translate(1 3133)">
		<ellipse class="st0" cx="699.9" cy="-1204.2" rx="128.1" ry="110.2"/>
		<ellipse class="st1" cx="699.9" cy="-1204.2" rx="127.3" ry="109.4"/>
	</g>
	
		<line id="Line_2_00000021798724911249952410000000743349255909247674_" class="st1" x1="700.7" y1="2038.8" x2="700.7" y2="2239.3"/>
	<g id="Ellipse_4_00000119076377148659226950000004577445093355274652_" transform="translate(1 1567)">
		<ellipse class="st0" cx="699.7" cy="782.5" rx="128.1" ry="110.2"/>
		<ellipse class="st1" cx="699.7" cy="782.5" rx="127.3" ry="109.4"/>
	</g>
	
		<line id="Line_3_00000031179283065105679210000017393642578640248209_" class="st1" x1="700.7" y1="2459.7" x2="700.7" y2="2660.2"/>
	<g id="Ellipse_5_00000003821628064046224490000006296789794802951870_" transform="translate(1 2350)">
		<ellipse class="st0" cx="699.7" cy="420.4" rx="128.1" ry="110.2"/>
		<ellipse class="st1" cx="699.7" cy="420.4" rx="127.3" ry="109.4"/>
	</g>
</g>
<text transform="matrix(1.2722 0 0 1 393.022 244.7002)" class="st2 st3 st4">2021</text>
<text transform="matrix(1.2722 0 0 1 224.7622 684.3662)" class="st2 st3 st4">2019-2020</text>
<text transform="matrix(1.2722 0 0 1 206.2656 1087)" class="st2 st3 st4">Start 2019</text>
<text transform="matrix(1.2722 0 0 1 236.2212 1507.9004)" class="st2 st3 st4">2017-2019</text>
<text transform="matrix(1.2722 0 0 1 224.7622 1928.7998)" class="st2 st3 st4">2017-2018</text>
<text transform="matrix(1.2722 0 0 1 224.7622 2349.5)" class="st2 st3 st4">2015-2018</text>
<text transform="matrix(1.2722 0 0 1 224.7622 2770.3994)" class="st2 st3 st4">2014-2016</text>
<g>
	<g>
		<path d="M609.9,234.3c1.4,0.7,3.5,1.3,5.7,1.3c3.3,0,5.2-1.3,5.2-3.3c0-1.8-1.3-2.9-4.7-3.9c-4.1-1.1-6.6-2.8-6.6-5.5
			c0-3,3.2-5.3,8.1-5.3c2.5,0,4.4,0.5,5.5,0.9l-0.9,2.1c-0.8-0.4-2.5-0.9-4.7-0.9c-3.4,0-4.7,1.6-4.7,2.9c0,1.8,1.5,2.7,4.9,3.8
			c4.2,1.3,6.3,2.9,6.3,5.8c0,3-2.8,5.6-8.7,5.6c-2.4,0-5-0.6-6.4-1.3L609.9,234.3z"/>
		<path d="M632.2,219.3v4h4.7v1.9h-4.7v7.6c0,1.7,0.6,2.7,2.5,2.7c0.8,0,1.5-0.1,1.9-0.2l0.1,1.9c-0.6,0.2-1.6,0.4-2.9,0.4
			c-1.5,0-2.7-0.4-3.5-1.1c-0.9-0.8-1.3-2-1.3-3.7v-7.7h-2.8v-1.9h2.8v-3.4L632.2,219.3z"/>
		<path d="M655.3,233.5c0,1.5,0.1,2.7,0.1,3.8h-2.9l-0.2-2.3h-0.1c-0.8,1.1-2.7,2.6-5.9,2.6c-2.8,0-6.1-1.2-6.1-6.1v-8.2h3.2v7.8
			c0,2.7,1.1,4.5,4,4.5c2.2,0,3.7-1.2,4.3-2.3c0.2-0.4,0.3-0.8,0.3-1.3v-8.6h3.2v10.1H655.3z"/>
		<path d="M675.9,216.7v17c0,1.2,0.1,2.6,0.1,3.6h-2.9l-0.2-2.4h0.1c-1,1.6-3.1,2.7-6.1,2.7c-4.3,0-7.7-2.9-7.7-7.1
			c0-4.7,3.7-7.5,8-7.5c2.7,0,4.6,1,5.4,2.1h0.1v-8.4L675.9,216.7L675.9,216.7z M672.7,229c0-0.3,0-0.8-0.1-1.1
			c-0.5-1.6-2.3-2.9-4.7-2.9c-3.4,0-5.4,2.3-5.4,5.4c0,2.8,1.8,5.2,5.3,5.2c2.2,0,4.1-1.2,4.7-3.1c0.1-0.3,0.2-0.7,0.2-1.1V229z"/>
		<path d="M683,230.8c0.1,3.4,2.8,4.9,6.1,4.9c2.3,0,3.7-0.3,4.9-0.7l0.6,1.8c-1.1,0.4-3.1,0.9-6,0.9c-5.5,0-8.8-2.9-8.8-7.1
			c0-4.3,3.2-7.6,8.4-7.6c5.8,0,7.3,4,7.3,6.6c0,0.5,0,0.9-0.1,1.2L683,230.8L683,230.8z M692.5,228.9c0-1.6-0.8-4.1-4.5-4.1
			c-3.3,0-4.7,2.4-5,4.1H692.5z"/>
		<path d="M699.5,227.7c0-1.7-0.1-3.1-0.1-4.4h2.8l0.1,2.8h0.1c0.8-1.9,2.8-3.1,5-3.1c0.4,0,0.6,0,0.9,0.1v2.4
			c-0.3-0.1-0.7-0.1-1.1-0.1c-2.3,0-3.9,1.4-4.3,3.3c-0.1,0.4-0.1,0.8-0.1,1.2v7.5h-3.2v-9.7H699.5z"/>
		<path d="M713.3,230.8c0.1,3.4,2.8,4.9,6.1,4.9c2.3,0,3.7-0.3,4.9-0.7l0.6,1.8c-1.1,0.4-3.1,0.9-6,0.9c-5.5,0-8.8-2.9-8.8-7.1
			c0-4.3,3.2-7.6,8.4-7.6c5.8,0,7.3,4,7.3,6.6c0,0.5,0,0.9-0.1,1.2L713.3,230.8L713.3,230.8z M722.8,228.9c0-1.6-0.8-4.1-4.5-4.1
			c-3.3,0-4.7,2.4-5,4.1H722.8z"/>
		<path d="M729.8,227.1c0-1.5-0.1-2.6-0.1-3.8h2.9l0.2,2.3h0.1c0.9-1.3,3-2.6,5.9-2.6c2.5,0,6.3,1.2,6.3,6v8.4h-3.2v-8.1
			c0-2.3-1.1-4.2-4.1-4.2c-2.1,0-3.8,1.2-4.4,2.6c-0.1,0.3-0.2,0.8-0.2,1.2v8.5H730v-10.3L729.8,227.1L729.8,227.1z"/>
		<path d="M765.5,216.7v17c0,1.2,0.1,2.6,0.1,3.6h-2.9l-0.2-2.4h-0.1c-1,1.6-3.1,2.7-6.1,2.7c-4.3,0-7.7-2.9-7.7-7.1
			c0-4.7,3.7-7.5,8-7.5c2.7,0,4.6,1,5.4,2.1h0.1v-8.4L765.5,216.7L765.5,216.7z M762.3,229c0-0.3,0-0.8-0.1-1.1
			c-0.5-1.6-2.3-2.9-4.7-2.9c-3.4,0-5.4,2.3-5.4,5.4c0,2.8,1.8,5.2,5.3,5.2c2.2,0,4.1-1.2,4.7-3.1c0.1-0.3,0.2-0.7,0.2-1.1V229z"/>
		<path d="M772.6,230.8c0.1,3.4,2.8,4.9,6.1,4.9c2.3,0,3.7-0.3,4.9-0.7l0.6,1.8c-1.1,0.4-3.1,0.9-6,0.9c-5.5,0-8.8-2.9-8.8-7.1
			c0-4.3,3.2-7.6,8.4-7.6c5.8,0,7.3,4,7.3,6.6c0,0.5,0,0.9-0.1,1.2L772.6,230.8L772.6,230.8z M782.1,228.9c0-1.6-0.8-4.1-4.5-4.1
			c-3.3,0-4.7,2.4-5,4.1H782.1z"/>
		<path d="M650.3,262.7c0-1.8-0.1-3.2-0.1-4.6h2.9l0.2,2.4h0.1c1.3-1.7,3.4-2.7,6.3-2.7c4.3,0,7.6,2.9,7.6,7.1
			c0,5.1-3.9,7.5-8.1,7.5c-2.4,0-4.4-0.8-5.5-2.2h-0.1v7.6h-3.2v-15.1L650.3,262.7L650.3,262.7z M653.5,266.4c0,0.4,0,0.7,0.1,1
			c0.6,1.8,2.5,3,4.9,3c3.4,0,5.4-2.2,5.4-5.4c0-2.8-1.9-5.2-5.3-5.2c-2.2,0-4.3,1.2-4.9,3.1c-0.1,0.3-0.2,0.7-0.2,1V266.4z"/>
		<path d="M681,272.1l-0.3-1.8h-0.1c-1,1.1-2.9,2.1-5.5,2.1c-3.6,0-5.5-2-5.5-4c0-3.4,3.8-5.3,10.7-5.2v-0.3c0-1.1-0.4-3.3-4.1-3.2
			c-1.7,0-3.4,0.4-4.6,1L671,259c1.5-0.7,3.6-1.2,5.9-1.2c5.5,0,6.8,2.9,6.8,5.7v5.2c0,1.2,0.1,2.4,0.3,3.4H681z M680.5,265
			c-3.5-0.1-7.5,0.4-7.5,3.1c0,1.7,1.4,2.4,3,2.4c2.3,0,3.8-1.2,4.3-2.3c0.1-0.3,0.2-0.6,0.2-0.8V265z M673.6,253.9
			c0-1.5,1.5-2.7,3.8-2.7c2.2,0,3.6,1.2,3.6,2.7s-1.6,2.7-3.7,2.7C675.1,256.6,673.6,255.4,673.6,253.9z M679.2,253.9
			c0-0.9-0.7-1.6-1.9-1.6c-1.1,0-1.8,0.8-1.8,1.6s0.7,1.6,1.8,1.6C678.4,255.5,679.2,254.7,679.2,253.9z"/>
		<path d="M696.6,252.6h3.2v9.4h0.1c0.7-0.8,1.3-1.4,2-2.1l7.6-7.3h4l-9,8.3l9.7,11.2h-3.8l-8.2-9.6l-2.4,2.1v7.4h-3.2L696.6,252.6
			L696.6,252.6z"/>
		<path d="M729.3,263h-9.6v7.1h10.8v2.1h-14v-19.6h13.4v2.1h-10.2v6.2h9.6V263z"/>
		<path d="M738.4,266l-2.6,6.1h-3.3l8.5-19.6h3.9l8.5,19.6H750l-2.7-6.1H738.4z M746.6,264l-2.5-5.6c-0.5-1.3-0.9-2.4-1.3-3.6h-0.1
			c-0.4,1.1-0.7,2.3-1.2,3.5L739,264H746.6z"/>
	</g>
</g>
<g>
	<g>
		<path d="M643.5,1068.9c1.6-0.3,4-0.4,6.2-0.4c3.4,0,5.7,0.5,7.2,1.6c1.2,0.9,2,2.2,2,3.7c0,2.6-2.1,4.3-4.7,5v0.1
			c1.9,0.5,3,1.9,3.6,4c0.8,2.7,1.4,4.6,1.9,5.4h-3.3c-0.4-0.6-1-2.2-1.6-4.7c-0.7-2.7-2.1-3.7-5-3.8h-3v8.5h-3.2v-19.4
			L643.5,1068.9L643.5,1068.9z M646.7,1077.8h3.3c3.4,0,5.6-1.5,5.6-3.7c0-2.5-2.3-3.6-5.7-3.6c-1.6,0-2.6,0.1-3.2,0.2L646.7,1077.8
			L646.7,1077.8z"/>
		<path d="M678,1084.3c0,1.5,0.1,2.7,0.1,3.8h-2.9l-0.2-2.3l0,0c-0.8,1.1-2.7,2.6-5.9,2.6c-2.8,0-6.1-1.2-6.1-6.1v-8.2h3.2v7.8
			c0,2.7,1.1,4.5,4,4.5c2.2,0,3.7-1.2,4.3-2.3c0.2-0.4,0.3-0.8,0.3-1.3v-8.6h3.2L678,1084.3L678,1084.3z"/>
		<path d="M683.3,1077.9c0-1.5-0.1-2.6-0.1-3.8h2.9l0.2,2.3h0.1c0.9-1.3,3-2.6,5.9-2.6c2.5,0,6.3,1.2,6.3,6v8.4h-3.2v-8.1
			c0-2.3-1.1-4.2-4.1-4.2c-2.1,0-3.8,1.2-4.4,2.6c-0.1,0.3-0.2,0.8-0.2,1.2v8.5h-3.2v-10.3H683.3z"/>
		<path d="M703.6,1077.9c0-1.5-0.1-2.6-0.1-3.8h2.9l0.2,2.3h0.1c0.9-1.3,3-2.6,5.9-2.6c2.5,0,6.3,1.2,6.3,6v8.4h-3.2v-8.1
			c0-2.3-1.1-4.2-4.1-4.2c-2.1,0-3.8,1.2-4.4,2.6c-0.1,0.3-0.2,0.8-0.2,1.2v8.5h-3.2v-10.3H703.6z"/>
		<path d="M725.7,1081.6c0.1,3.4,2.8,4.9,6.1,4.9c2.3,0,3.7-0.3,4.9-0.7l0.6,1.8c-1.1,0.4-3.1,0.9-6,0.9c-5.5,0-8.8-2.9-8.8-7.1
			c0-4.3,3.2-7.6,8.4-7.6c5.8,0,7.3,4,7.3,6.6c0,0.5,0,0.9-0.1,1.2L725.7,1081.6L725.7,1081.6z M735.2,1079.8c0-1.6-0.8-4.1-4.5-4.1
			c-3.3,0-4.7,2.4-5,4.1H735.2z"/>
		<path d="M742.2,1078.5c0-1.7-0.1-3.1-0.1-4.4h2.8l0.1,2.8h0.1c0.8-1.9,2.8-3.1,5-3.1c0.4,0,0.6,0,0.9,0.1v2.4
			c-0.3-0.1-0.7-0.1-1.1-0.1c-2.3,0-3.9,1.4-4.3,3.3c-0.1,0.4-0.1,0.8-0.1,1.2v7.5h-3.2v-9.7L742.2,1078.5L742.2,1078.5z"/>
	</g>
</g>
<g>
	<g>
		<path d="M641.6,1505.7c1.4,0.7,3.5,1.3,5.7,1.3c3.3,0,5.2-1.3,5.2-3.3c0-1.8-1.3-2.9-4.7-3.9c-4.1-1.1-6.6-2.8-6.6-5.5
			c0-3,3.2-5.3,8.1-5.3c2.5,0,4.4,0.5,5.5,0.9l-0.9,2.1c-0.8-0.4-2.5-0.9-4.7-0.9c-3.4,0-4.7,1.6-4.7,2.9c0,1.8,1.5,2.7,4.9,3.8
			c4.2,1.3,6.3,2.9,6.3,5.8c0,3-2.8,5.6-8.7,5.6c-2.4,0-5-0.6-6.4-1.3L641.6,1505.7z"/>
		<path d="M663.2,1501.2L663.2,1501.2c0.5-0.5,1.1-1.1,1.6-1.6l5.3-4.8h3.9l-6.9,5.8l7.9,8.3h-4l-6.1-6.7l-1.7,1.5v5.3H660v-20.6
			h3.2V1501.2z"/>
		<path d="M680.8,1490.8c0,0.9-0.8,1.6-2.1,1.6c-1.2,0-2-0.7-2-1.6s0.8-1.6,2-1.6C680,1489.2,680.7,1489.9,680.8,1490.8z
			 M677.1,1508.8v-14h3.2v14H677.1z"/>
		<path d="M685.6,1488.2h3.2v20.6h-3.2V1488.2z"/>
		<path d="M706.6,1502.1c-0.1,3.3,2.3,5.1,5.7,5.1c2.4,0,3.9-0.4,4.8-0.8l0.6,1.8c-1.4,0.6-3.5,1-5.8,1c-3,0-5.8-1.1-6.8-3.1H705
			c-1.1,2-3.6,3.1-6.6,3.1c-3.7,0-5.6-2-5.6-4c0-3.2,3.8-5.2,10.8-5.1v-0.6c0-0.7-0.5-3.1-4.2-3.1c-1.7,0-3.5,0.5-4.6,1.1l-0.8-1.7
			c1.6-0.8,3.8-1.3,5.6-1.3c3.2,0,5,1.2,5.8,3h0.1c1.2-1.8,3.4-3,6.2-3c5.5,0,7,4.1,7,6.5c0,0.4,0,0.9-0.1,1.1H706.6z M703.6,1501.8
			c-3.4-0.1-7.6,0.4-7.6,3.2c0,1.5,1.4,2.3,3.1,2.3c2.4,0,3.8-1.1,4.3-2.4c0.1-0.3,0.2-0.7,0.2-1V1501.8z M715.5,1500.2
			c0.1-1.4-0.9-4-4.2-4c-3.2,0-4.7,2.4-4.8,4H715.5z"/>
		<path d="M722.5,1499.2c0-1.7-0.1-3.1-0.1-4.4h2.8l0.1,2.8h0.1c0.8-1.9,2.8-3.1,5-3.1c0.4,0,0.6,0,0.9,0.1v2.4
			c-0.3-0.1-0.7-0.1-1.1-0.1c-2.3,0-3.9,1.4-4.3,3.3c-0.1,0.4-0.1,0.8-0.1,1.2v7.5h-3.2v-9.7L722.5,1499.2L722.5,1499.2z"/>
		<path d="M736.3,1502.3c0.1,3.4,2.8,4.9,6.1,4.9c2.3,0,3.7-0.3,4.9-0.7l0.6,1.8c-1.1,0.4-3.1,0.9-6,0.9c-5.5,0-8.8-2.9-8.8-7.1
			c0-4.3,3.2-7.6,8.4-7.6c5.8,0,7.3,4,7.3,6.6c0,0.5,0,0.9-0.1,1.2L736.3,1502.3L736.3,1502.3z M745.8,1500.4c0-1.6-0.8-4.1-4.5-4.1
			c-3.3,0-4.7,2.4-5,4.1H745.8z"/>
		<path d="M752.8,1499.2c0-1.7-0.1-3.1-0.1-4.4h2.8l0.1,2.8h0.1c0.8-1.9,2.8-3.1,5-3.1c0.4,0,0.6,0,0.9,0.1v2.4
			c-0.3-0.1-0.7-0.1-1.1-0.1c-2.3,0-3.9,1.4-4.3,3.3c-0.1,0.4-0.1,0.8-0.1,1.2v7.5h-3.2v-9.7L752.8,1499.2L752.8,1499.2z"/>
	</g>
</g>
<g>
	<g>
		<path d="M631.6,1894.6c-0.2-2.7-0.4-6-0.4-8.4h-0.1c-0.9,2.3-1.9,4.7-3.1,7.4l-4.4,9.5h-2.4l-4.1-9.3c-1.2-2.8-2.1-5.3-2.8-7.6
			h-0.1c-0.1,2.4-0.2,5.7-0.5,8.6l-0.7,8.4h-3.1l1.7-19.6h4.1l4.2,9.5c1,2.4,1.9,4.5,2.5,6.6h0.1c0.7-2,1.5-4.1,2.6-6.6l4.4-9.5h4.1
			l1.5,19.6h-3.2L631.6,1894.6z"/>
		<path d="M641.8,1896.7c0.1,3.4,2.8,4.9,6.1,4.9c2.3,0,3.7-0.3,4.9-0.7l0.6,1.8c-1.1,0.4-3.1,0.9-6,0.9c-5.5,0-8.8-2.9-8.8-7.1
			c0-4.3,3.2-7.6,8.4-7.6c5.8,0,7.3,4,7.3,6.6c0,0.5,0,0.9-0.1,1.2L641.8,1896.7L641.8,1896.7z M651.3,1894.8c0-1.6-0.8-4.1-4.5-4.1
			c-3.3,0-4.7,2.4-5,4.1H651.3z"/>
		<path d="M673.7,1882.6v17c0,1.2,0.1,2.7,0.1,3.6H671l-0.2-2.4h-0.1c-1,1.6-3.1,2.7-6.1,2.7c-4.3,0-7.7-2.9-7.7-7.1
			c0-4.7,3.7-7.5,8-7.5c2.7,0,4.6,1,5.4,2.1h0.1v-8.4L673.7,1882.6L673.7,1882.6z M670.5,1894.9c0-0.3,0-0.8-0.1-1.1
			c-0.5-1.6-2.3-2.9-4.7-2.9c-3.4,0-5.4,2.3-5.4,5.4c0,2.8,1.8,5.2,5.3,5.2c2.2,0,4.1-1.2,4.7-3.1c0.1-0.3,0.2-0.7,0.2-1.1V1894.9z"
			/>
		<path d="M679,1882.6h3.2v8.8h0.1c0.5-0.7,1.3-1.4,2.3-1.8c0.9-0.4,2.1-0.7,3.3-0.7c2.4,0,6.2,1.2,6.2,6v8.4h-3.2v-8.1
			c0-2.3-1.1-4.2-4.1-4.2c-2.1,0-3.8,1.2-4.4,2.5c-0.2,0.4-0.2,0.7-0.2,1.2v8.5H679V1882.6z"/>
		<path d="M694.9,1907.3c1.5-0.1,2.8-0.4,3.5-1.1c0.9-0.8,1.2-1.9,1.2-5.3v-11.7h3.2v12.7c0,2.7-0.6,4.5-2.1,5.8
			c-1.4,1.1-3.8,1.6-5.5,1.6L694.9,1907.3z M703.4,1885.2c0,0.9-0.8,1.6-2.1,1.6c-1.2,0-2-0.7-2-1.6s0.8-1.6,2-1.6
			C702.6,1883.6,703.3,1884.4,703.4,1885.2z"/>
		<path d="M720.6,1896.5c-0.1,3.3,2.3,5.1,5.7,5.1c2.4,0,3.9-0.4,4.8-0.8l0.6,1.8c-1.4,0.6-3.5,1-5.8,1c-3,0-5.8-1.1-6.8-3.1H719
			c-1.1,2-3.6,3.1-6.6,3.1c-3.7,0-5.6-2-5.6-4c0-3.2,3.8-5.2,10.8-5.1v-0.6c0-0.7-0.5-3.1-4.2-3.1c-1.7,0-3.5,0.5-4.6,1.1l-0.8-1.7
			c1.6-0.8,3.8-1.3,5.6-1.3c3.2,0,5,1.2,5.8,3h0.1c1.2-1.8,3.4-3,6.2-3c5.5,0,7,4.1,7,6.5c0,0.4,0,0.9-0.1,1.1H720.6z M717.6,1896.2
			c-3.4-0.1-7.6,0.4-7.6,3.2c0,1.5,1.4,2.3,3.1,2.3c2.4,0,3.8-1.1,4.3-2.4c0.1-0.3,0.2-0.7,0.2-1V1896.2z M729.5,1894.6
			c0.1-1.4-0.9-4-4.2-4c-3.2,0-4.7,2.4-4.8,4H729.5z"/>
		<path d="M736.5,1882.6h3.2v20.6h-3.2V1882.6z"/>
		<path d="M745.1,1893.8c0-1.8-0.1-3.2-0.1-4.6h2.9l0.2,2.4h0.1c1.3-1.7,3.4-2.7,6.3-2.7c4.3,0,7.6,2.9,7.6,7.1
			c0,5.1-3.9,7.5-8.1,7.5c-2.4,0-4.4-0.8-5.5-2.2h-0.1v7.6h-3.2v-15.1L745.1,1893.8L745.1,1893.8z M748.3,1897.5c0,0.4,0,0.7,0.1,1
			c0.6,1.8,2.5,3,4.9,3c3.4,0,5.4-2.2,5.4-5.4c0-2.8-1.9-5.2-5.3-5.2c-2.2,0-4.3,1.2-4.9,3.1c-0.1,0.3-0.2,0.7-0.2,1V1897.5z"/>
		<path d="M767.7,1896.7c0.1,3.4,2.8,4.9,6.1,4.9c2.3,0,3.7-0.3,4.9-0.7l0.6,1.8c-1.1,0.4-3.1,0.9-6,0.9c-5.5,0-8.8-2.9-8.8-7.1
			c0-4.3,3.2-7.6,8.4-7.6c5.8,0,7.3,4,7.3,6.6c0,0.5,0,0.9-0.1,1.2L767.7,1896.7L767.7,1896.7z M777.2,1894.8c0-1.6-0.8-4.1-4.5-4.1
			c-3.3,0-4.7,2.4-5,4.1H777.2z"/>
		<path d="M784.2,1893.6c0-1.7-0.1-3.1-0.1-4.4h2.8l0.1,2.8h0.1c0.8-1.9,2.8-3.1,5-3.1c0.4,0,0.6,0,0.9,0.1v2.4
			c-0.3-0.1-0.7-0.1-1.1-0.1c-2.3,0-3.9,1.4-4.3,3.3c-0.1,0.4-0.1,0.8-0.1,1.2v7.5h-3.2v-9.7L784.2,1893.6L784.2,1893.6z"/>
		<path d="M698.9,1920c0,0.9-0.8,1.6-2.1,1.6c-1.2,0-2-0.7-2-1.6s0.8-1.6,2-1.6C698.1,1918.4,698.9,1919.1,698.9,1920z M695.2,1938
			v-14h3.2v14H695.2z"/>
		<path d="M616.6,1972.8c0.1-1,0.1-2.4,0.1-3.6v-17h3.2v8.8h0.1c1.1-1.6,3.2-2.6,6.1-2.6c4.4,0,7.5,2.9,7.5,7.1c0,5-4.1,7.5-8,7.5
			c-2.6,0-4.6-0.8-6-2.6h-0.1l-0.2,2.3L616.6,1972.8L616.6,1972.8z M620,1967.2c0,0.3,0,0.6,0.1,0.9c0.6,1.8,2.5,3,4.9,3
			c3.4,0,5.4-2.2,5.4-5.4c0-2.8-1.9-5.2-5.3-5.2c-2.2,0-4.3,1.2-4.9,3.1c-0.1,0.3-0.2,0.7-0.2,1.1V1967.2z"/>
		<path d="M649.6,1959.5l1.6-1.7l1.5,0.8l-1.6,1.8c1.7,1.3,2.7,3.2,2.7,5.4c0,5.1-4.5,7.4-8.7,7.4c-1.6,0-3.2-0.3-4.5-1l-1.6,1.8
			l-1.4-0.9l1.5-1.7c-1.7-1.3-2.8-3.1-2.8-5.4c0-4.7,3.9-7.4,8.8-7.4C646.7,1958.5,648.3,1958.8,649.6,1959.5z M648.2,1961.2
			c-0.8-0.5-1.8-0.8-3.1-0.8c-4,0-5.6,2.9-5.6,5.5c0,1.2,0.4,2.5,1.3,3.5h0.1L648.2,1961.2z M642,1970.4c0.9,0.6,1.9,0.8,3,0.8
			c3.4,0,5.7-2.3,5.7-5.4c0-1-0.3-2.3-1.3-3.4h-0.1L642,1970.4z"/>
		<path d="M657.7,1963.2c0-1.7-0.1-3.1-0.1-4.4h2.8l0.1,2.8h0.1c0.8-1.9,2.8-3.1,5-3.1c0.4,0,0.6,0,0.9,0.1v2.4
			c-0.3-0.1-0.7-0.1-1.1-0.1c-2.3,0-3.9,1.4-4.3,3.3c-0.1,0.4-0.1,0.8-0.1,1.2v7.5h-3.2v-9.7L657.7,1963.2L657.7,1963.2z"/>
		<path d="M669.6,1962.6c0-1.5-0.1-2.6-0.1-3.8h2.9l0.2,2.3h0.1c0.9-1.3,3-2.6,5.9-2.6c2.5,0,6.3,1.2,6.3,6v8.4h-3.2v-8.1
			c0-2.3-1.1-4.2-4.1-4.2c-2.1,0-3.8,1.2-4.4,2.6c-0.1,0.3-0.2,0.8-0.2,1.2v8.5h-3.2v-10.3H669.6z"/>
		<path d="M691.8,1966.3c0.1,3.4,2.8,4.9,6.1,4.9c2.3,0,3.7-0.3,4.9-0.7l0.6,1.8c-1.1,0.4-3.1,0.9-6,0.9c-5.5,0-8.8-2.9-8.8-7.1
			c0-4.3,3.2-7.6,8.4-7.6c5.8,0,7.3,4,7.3,6.6c0,0.5,0,0.9-0.1,1.2L691.8,1966.3L691.8,1966.3z M701.3,1964.4c0-1.6-0.8-4.1-4.5-4.1
			c-3.3,0-4.7,2.4-5,4.1H701.3z"/>
		<path d="M708.3,1952.2h3.2v8.8h0.1c0.5-0.7,1.3-1.4,2.3-1.8c0.9-0.4,2.1-0.7,3.3-0.7c2.4,0,6.2,1.2,6.2,6v8.4h-3.2v-8.1
			c0-2.3-1.1-4.2-4.1-4.2c-2.1,0-3.8,1.2-4.4,2.5c-0.2,0.4-0.2,0.7-0.2,1.2v8.5h-3.2L708.3,1952.2L708.3,1952.2z"/>
		<path d="M738.5,1972.8l-0.3-1.8h-0.1c-1,1.1-2.9,2.1-5.5,2.1c-3.6,0-5.5-2-5.5-4c0-3.4,3.8-5.3,10.7-5.2v-0.3
			c0-1.1-0.4-3.3-4.1-3.2c-1.7,0-3.4,0.4-4.6,1l-0.7-1.7c1.5-0.7,3.6-1.2,5.9-1.2c5.5,0,6.8,2.9,6.8,5.7v5.2c0,1.2,0.1,2.4,0.3,3.4
			H738.5z M738,1965.7c-3.5-0.1-7.5,0.4-7.5,3.2c0,1.7,1.4,2.4,3,2.4c2.3,0,3.8-1.2,4.3-2.3c0.1-0.3,0.2-0.6,0.2-0.8V1965.7z"/>
		<path d="M747.5,1958.8l3.5,7.9c0.6,1.3,1.1,2.5,1.5,3.6h0.1c0.4-1.2,0.9-2.3,1.5-3.6l3.5-7.9h3.4l-7,14h-3.1l-6.8-14H747.5z"/>
		<path d="M765.7,1966.3c0.1,3.4,2.8,4.9,6.1,4.9c2.3,0,3.7-0.3,4.9-0.7l0.6,1.8c-1.1,0.4-3.1,0.9-6,0.9c-5.5,0-8.8-2.9-8.8-7.1
			c0-4.3,3.2-7.6,8.4-7.6c5.8,0,7.3,4,7.3,6.6c0,0.5,0,0.9-0.1,1.2L765.7,1966.3L765.7,1966.3z M775.2,1964.4c0-1.6-0.8-4.1-4.5-4.1
			c-3.3,0-4.7,2.4-5,4.1H775.2z"/>
	</g>
</g>
<g>
	<g>
		<path d="M636.2,2346.8c-1.4,0.4-4.3,1.1-7.6,1.1c-3.8,0-6.9-0.8-9.3-2.6c-2.1-1.6-3.5-4.2-3.5-7.3c0-5.8,5.1-10.1,13.4-10.1
			c2.9,0,5.2,0.5,6.2,0.9l-0.8,2.1c-1.3-0.5-3-0.8-5.5-0.8c-6,0-10,3-10,7.8c0,5,3.8,7.9,9.6,7.9c2.1,0,3.5-0.2,4.3-0.5v-5.8h-5v-2
			h8.2L636.2,2346.8L636.2,2346.8z"/>
		<path d="M642,2333.6l3.9,8.3c0.4,0.9,0.9,2,1.1,2.9h0.1c0.3-0.8,0.7-1.9,1.1-2.9l3.5-8.2h3.4l-4.9,10c-2.3,4.8-3.9,7.3-6.1,8.8
			c-1.6,1.1-3.2,1.5-4,1.6l-0.8-2.1c0.8-0.2,1.9-0.6,2.8-1.2c0.9-0.6,2-1.5,2.7-2.8c0.2-0.3,0.3-0.5,0.3-0.6s-0.1-0.3-0.2-0.7
			l-6.6-12.9h3.7V2333.6z"/>
		<path d="M658,2337.4c0-1.5-0.1-2.6-0.1-3.8h2.8l0.2,2.3h0.1c1-1.3,2.7-2.6,5.6-2.6c2.4,0,4.3,1.2,5,2.8h0.1c0.6-0.8,1.3-1.4,2-1.8
			c1.1-0.6,2.2-1,3.9-1c2.4,0,5.9,1.2,5.9,6.1v8.3h-3.2v-7.9c0-2.7-1.3-4.3-3.9-4.3c-1.9,0-3.3,1.1-3.9,2.3
			c-0.2,0.4-0.3,0.8-0.3,1.3v8.7H669v-8.4c0-2.2-1.3-3.8-3.7-3.8c-2,0-3.5,1.3-4,2.5c-0.2,0.4-0.2,0.8-0.2,1.3v8.5H658V2337.4z"/>
		<path d="M688.6,2337.4c0-1.5-0.1-2.6-0.1-3.8h2.9l0.2,2.3h0.1c0.9-1.3,3-2.6,5.9-2.6c2.5,0,6.3,1.2,6.3,6v8.4h-3.2v-8.1
			c0-2.3-1.1-4.2-4.1-4.2c-2.1,0-3.8,1.2-4.4,2.6c-0.1,0.3-0.2,0.8-0.2,1.2v8.5h-3.2v-10.3L688.6,2337.4L688.6,2337.4z"/>
		<path d="M718.9,2347.6l-0.3-1.8h-0.1c-1,1.1-2.9,2.1-5.5,2.1c-3.6,0-5.5-2-5.5-4c0-3.4,3.8-5.3,10.7-5.2v-0.3
			c0-1.1-0.4-3.3-4.1-3.2c-1.7,0-3.4,0.4-4.6,1l-0.7-1.7c1.5-0.7,3.6-1.2,5.9-1.2c5.5,0,6.8,2.9,6.8,5.7v5.2c0,1.2,0.1,2.4,0.3,3.4
			H718.9z M718.4,2340.5c-3.5-0.1-7.5,0.4-7.5,3.2c0,1.7,1.4,2.4,3,2.4c2.3,0,3.8-1.2,4.3-2.3c0.1-0.3,0.2-0.6,0.2-0.8V2340.5z"/>
		<path d="M726.1,2345c1,0.5,2.7,1,4.3,1c2.4,0,3.5-0.9,3.5-2.1c0-1.2-0.9-1.9-3.3-2.6c-3.2-0.9-4.8-2.3-4.7-4
			c0-2.3,2.3-4.1,6.2-4.1c1.8,0,3.4,0.4,4.4,0.9l-0.8,1.9c-0.7-0.3-2-0.8-3.7-0.8c-1.9,0-3,0.9-3,1.9c0,1.2,1,1.7,3.4,2.4
			c3.1,0.9,4.7,2.1,4.7,4.2c0,2.5-2.5,4.2-6.7,4.2c-2,0-3.8-0.4-5-1L726.1,2345z"/>
		<path d="M745,2329.6v4h4.7v1.9H745v7.6c0,1.7,0.6,2.7,2.5,2.7c0.8,0,1.5-0.1,1.9-0.2l0.1,1.9c-0.6,0.2-1.6,0.4-2.9,0.4
			c-1.5,0-2.7-0.4-3.5-1.1c-0.9-0.8-1.3-2-1.3-3.7v-7.7H739v-1.9h2.8v-3.4L745,2329.6z"/>
		<path d="M756.8,2329.6c0,0.9-0.8,1.6-2.1,1.6c-1.2,0-2-0.7-2-1.6c0-0.9,0.8-1.6,2-1.6C756,2328.1,756.7,2328.8,756.8,2329.6z
			 M753.1,2347.6v-14h3.2v14H753.1z"/>
		<path d="M764.8,2340L764.8,2340c0.5-0.5,1.1-1.1,1.6-1.6l5.3-4.8h3.9l-6.9,5.8l7.9,8.3h-4l-6.1-6.7l-1.7,1.5v5.3h-3.2V2327h3.2
			V2340z"/>
		<path d="M786.3,2338.9v1.9h-9.1v-1.9H786.3z"/>
		<path d="M652.1,2364.4v4h4.7v1.9h-4.7v7.6c0,1.7,0.6,2.7,2.5,2.7c0.8,0,1.5-0.1,1.9-0.2l0.1,1.9c-0.6,0.2-1.6,0.4-2.9,0.4
			c-1.5,0-2.7-0.4-3.5-1.1c-0.9-0.8-1.3-2-1.3-3.7v-7.7h-2.8v-1.9h2.8v-3.4L652.1,2364.4z"/>
		<path d="M660.3,2372.8c0-1.7-0.1-3.1-0.1-4.4h2.8l0.1,2.8h0.1c0.8-1.9,2.8-3.1,5-3.1c0.4,0,0.6,0,0.9,0.1v2.4
			c-0.3-0.1-0.7-0.1-1.1-0.1c-2.3,0-3.9,1.4-4.3,3.3c-0.1,0.4-0.1,0.8-0.1,1.2v7.5h-3.2v-9.7H660.3z"/>
		<path d="M684.6,2375.7c-0.1,3.3,2.3,5.1,5.7,5.1c2.4,0,3.9-0.4,4.8-0.8l0.6,1.8c-1.4,0.6-3.5,1-5.8,1c-3,0-5.8-1.1-6.8-3.1H683
			c-1.1,2-3.6,3.1-6.6,3.1c-3.7,0-5.6-2-5.6-4c0-3.2,3.8-5.2,10.8-5.1v-0.6c0-0.7-0.5-3.1-4.2-3.1c-1.7,0-3.5,0.5-4.6,1.1l-0.8-1.7
			c1.6-0.8,3.8-1.3,5.6-1.3c3.2,0,5,1.2,5.8,3h0.1c1.2-1.8,3.4-3,6.2-3c5.5,0,7,4.1,7,6.5c0,0.4,0,0.9-0.1,1.1H684.6z M681.6,2375.4
			c-3.4-0.1-7.6,0.4-7.6,3.2c0,1.5,1.4,2.3,3.1,2.3c2.4,0,3.8-1.1,4.3-2.4c0.1-0.3,0.2-0.7,0.2-1V2375.4z M693.6,2373.9
			c0.1-1.4-0.9-4-4.2-4c-3.2,0-4.7,2.4-4.8,4H693.6z"/>
		<path d="M700.6,2372.2c0-1.5-0.1-2.6-0.1-3.8h2.9l0.2,2.3h0.1c0.9-1.3,3-2.6,5.9-2.6c2.5,0,6.3,1.2,6.3,6v8.4h-3.2v-8.1
			c0-2.3-1.1-4.2-4.1-4.2c-2.1,0-3.8,1.2-4.4,2.6c-0.1,0.3-0.2,0.8-0.2,1.2v8.5h-3.2v-10.3L700.6,2372.2L700.6,2372.2z"/>
		<path d="M722.7,2375.9c0.1,3.4,2.8,4.9,6.1,4.9c2.3,0,3.7-0.3,4.9-0.7l0.6,1.8c-1.1,0.4-3.1,0.9-6,0.9c-5.5,0-8.8-2.9-8.8-7.1
			c0-4.3,3.2-7.6,8.4-7.6c5.8,0,7.3,4,7.3,6.6c0,0.5,0,0.9-0.1,1.2L722.7,2375.9L722.7,2375.9z M732.2,2374.1c0-1.6-0.8-4.1-4.5-4.1
			c-3.3,0-4.7,2.4-5,4.1H732.2z"/>
		<path d="M739.2,2372.8c0-1.7-0.1-3.1-0.1-4.4h2.8l0.1,2.8h0.1c0.8-1.9,2.8-3.1,5-3.1c0.4,0,0.6,0,0.9,0.1v2.4
			c-0.3-0.1-0.7-0.1-1.1-0.1c-2.3,0-3.9,1.4-4.3,3.3c-0.1,0.4-0.1,0.8-0.1,1.2v7.5h-3.2v-9.7H739.2z"/>
	</g>
</g>
<g>
	<g>
		<path d="M619.3,2766.2c1.4,0.7,3.5,1.3,5.7,1.3c3.3,0,5.2-1.3,5.2-3.3c0-1.8-1.3-2.9-4.7-3.9c-4.1-1.1-6.6-2.8-6.6-5.5
			c0-3,3.2-5.3,8.1-5.3c2.5,0,4.4,0.5,5.5,0.9l-0.9,2.1c-0.8-0.4-2.5-0.9-4.7-0.9c-3.4,0-4.7,1.6-4.7,2.9c0,1.8,1.5,2.7,4.9,3.8
			c4.2,1.3,6.3,2.9,6.3,5.8c0,3-2.8,5.6-8.7,5.6c-2.4,0-5-0.6-6.4-1.3L619.3,2766.2z"/>
		<path d="M641.5,2751.2v4h4.7v1.9h-4.7v7.6c0,1.7,0.6,2.7,2.5,2.7c0.8,0,1.5-0.1,1.9-0.2l0.1,1.9c-0.6,0.2-1.6,0.4-2.9,0.4
			c-1.5,0-2.7-0.4-3.5-1.1c-0.9-0.8-1.3-2-1.3-3.7v-7.7h-2.8v-1.9h2.8v-3.4L641.5,2751.2z"/>
		<path d="M664.6,2765.4c0,1.5,0.1,2.7,0.1,3.8h-2.9l-0.2-2.3h-0.1c-0.8,1.1-2.7,2.6-5.9,2.6c-2.8,0-6.1-1.2-6.1-6.1v-8.2h3.2v7.8
			c0,2.7,1.1,4.5,4,4.5c2.2,0,3.7-1.2,4.3-2.3c0.2-0.4,0.3-0.8,0.3-1.3v-8.6h3.2v10.1H664.6z"/>
		<path d="M685.3,2748.7v17c0,1.2,0.1,2.7,0.1,3.6h-2.9l-0.2-2.4h-0.1c-1,1.6-3.1,2.7-6.1,2.7c-4.3,0-7.7-2.9-7.7-7.1
			c0-4.7,3.7-7.5,8-7.5c2.7,0,4.6,1,5.4,2.1h0.1v-8.4L685.3,2748.7L685.3,2748.7z M682.1,2760.9c0-0.3,0-0.8-0.1-1.1
			c-0.5-1.6-2.3-2.9-4.7-2.9c-3.4,0-5.4,2.3-5.4,5.4c0,2.8,1.8,5.2,5.3,5.2c2.2,0,4.1-1.2,4.7-3.1c0.1-0.3,0.2-0.7,0.2-1.1V2760.9z"
			/>
		<path d="M692.4,2762.7c0.1,3.4,2.8,4.9,6.1,4.9c2.3,0,3.7-0.3,4.9-0.7l0.6,1.8c-1.1,0.4-3.1,0.9-6,0.9c-5.5,0-8.8-2.9-8.8-7.1
			c0-4.3,3.2-7.6,8.4-7.6c5.8,0,7.3,4,7.3,6.6c0,0.5,0,0.9-0.1,1.2L692.4,2762.7L692.4,2762.7z M701.9,2760.9c0-1.6-0.8-4.1-4.5-4.1
			c-3.3,0-4.7,2.4-5,4.1H701.9z"/>
		<path d="M708.9,2759c0-1.5-0.1-2.6-0.1-3.8h2.9l0.2,2.3h0.1c0.9-1.3,3-2.6,5.9-2.6c2.5,0,6.3,1.2,6.3,6v8.4H721v-8.1
			c0-2.3-1.1-4.2-4.1-4.2c-2.1,0-3.8,1.2-4.4,2.6c-0.1,0.3-0.2,0.8-0.2,1.2v8.5h-3.2V2759H708.9z"/>
		<path d="M733.1,2751.2v4h4.7v1.9h-4.7v7.6c0,1.7,0.6,2.7,2.5,2.7c0.8,0,1.5-0.1,1.9-0.2l0.1,1.9c-0.6,0.2-1.6,0.4-2.9,0.4
			c-1.5,0-2.7-0.4-3.5-1.1c-0.9-0.8-1.3-2-1.3-3.7v-7.7h-2.8v-1.9h2.8v-3.4L733.1,2751.2z"/>
		<path d="M749,2759.8c0-1.8-0.1-3.2-0.1-4.6h2.9l0.2,2.4h0.1c1.3-1.7,3.4-2.7,6.3-2.7c4.3,0,7.6,2.9,7.6,7.1c0,5.1-3.9,7.5-8.1,7.5
			c-2.4,0-4.4-0.8-5.5-2.2h-0.1v7.6H749V2759.8z M752.2,2763.6c0,0.4,0,0.7,0.1,1c0.6,1.8,2.5,3,4.9,3c3.4,0,5.4-2.2,5.4-5.4
			c0-2.8-1.9-5.2-5.3-5.2c-2.2,0-4.3,1.2-4.9,3.1c-0.1,0.3-0.2,0.7-0.2,1V2763.6z"/>
		<path d="M779.7,2769.3l-0.3-1.8h-0.1c-1,1.1-2.9,2.1-5.5,2.1c-3.6,0-5.5-2-5.5-4c0-3.4,3.8-5.3,10.7-5.2v-0.3
			c0-1.1-0.4-3.3-4.1-3.2c-1.7,0-3.4,0.4-4.6,1l-0.7-1.7c1.5-0.7,3.6-1.2,5.9-1.2c5.5,0,6.8,2.9,6.8,5.7v5.2c0,1.2,0.1,2.4,0.3,3.4
			H779.7z M779.2,2762.1c-3.5-0.1-7.5,0.4-7.5,3.2c0,1.7,1.4,2.4,3,2.4c2.3,0,3.8-1.2,4.3-2.3c0.1-0.3,0.2-0.6,0.2-0.8V2762.1z
			 M772.2,2751c0-1.5,1.5-2.7,3.8-2.7c2.2,0,3.6,1.2,3.6,2.7s-1.6,2.7-3.7,2.7C773.8,2753.7,772.2,2752.5,772.2,2751z M777.8,2751
			c0-0.9-0.7-1.6-1.9-1.6c-1.1,0-1.8,0.8-1.8,1.6s0.7,1.6,1.8,1.6C777.1,2752.6,777.8,2751.9,777.8,2751z"/>
		<path d="M670.8,2801c1.4,0.7,3.5,1.3,5.7,1.3c3.3,0,5.2-1.3,5.2-3.3c0-1.8-1.3-2.9-4.7-3.9c-4.1-1.1-6.6-2.8-6.6-5.5
			c0-3,3.2-5.3,8.1-5.3c2.5,0,4.4,0.5,5.5,0.9l-0.9,2.1c-0.8-0.4-2.5-0.9-4.7-0.9c-3.4,0-4.7,1.6-4.7,2.9c0,1.8,1.5,2.7,4.9,3.8
			c4.2,1.3,6.3,2.9,6.3,5.8c0,3-2.8,5.6-8.7,5.6c-2.4,0-5-0.6-6.4-1.3L670.8,2801z"/>
		<path d="M694,2786.6h-7.6v-2.1h18.4v2.1h-7.6v17.4H694V2786.6z"/>
		<path d="M721.1,2804.1l-3.2-4.3c-1.3-1.7-2.1-2.7-2.9-3.9h-0.1c-0.7,1.1-1.4,2.2-2.7,3.9l-3,4.3h-3.7l7.6-9.9l-7.3-9.6h3.7
			l3.3,4.6c0.9,1.3,1.6,2.2,2.3,3.3h0.1c0.7-1.2,1.4-2.1,2.3-3.3l3.4-4.6h3.7l-7.6,9.5l7.8,10H721.1z"/>
	</g>
</g>
<g>
	<g>
		<path d="M663,649.6c1.4,0.7,3.5,1.3,5.7,1.3c3.3,0,5.2-1.3,5.2-3.3c0-1.8-1.3-2.9-4.7-3.9c-4.1-1.1-6.6-2.8-6.6-5.5
			c0-3,3.2-5.3,8.1-5.3c2.5,0,4.4,0.5,5.5,0.9l-0.9,2.1c-0.8-0.4-2.5-0.9-4.7-0.9c-3.4,0-4.7,1.6-4.7,2.9c0,1.8,1.5,2.7,4.9,3.8
			c4.2,1.3,6.3,2.9,6.3,5.8c0,3-2.8,5.6-8.7,5.6c-2.4,0-5-0.6-6.4-1.3L663,649.6z"/>
		<path d="M685.2,634.7v4h4.7v1.9h-4.7v7.6c0,1.7,0.6,2.7,2.5,2.7c0.8,0,1.5-0.1,1.9-0.2l0.1,1.9c-0.6,0.2-1.6,0.4-2.9,0.4
			c-1.5,0-2.7-0.4-3.5-1.1c-0.9-0.8-1.3-2-1.3-3.7v-7.7h-2.8v-1.9h2.8v-3.4L685.2,634.7z"/>
		<path d="M709.5,645.6c0,5.2-4.6,7.5-8.9,7.5c-4.8,0-8.6-2.8-8.6-7.2c0-4.7,3.9-7.4,8.9-7.4C706.1,638.4,709.5,641.3,709.5,645.6z
			 M695.4,645.7c0,3.1,2.2,5.4,5.4,5.4c3.1,0,5.4-2.3,5.4-5.5c0-2.4-1.5-5.4-5.4-5.4C697.1,640.3,695.4,643.1,695.4,645.7z"/>
		<path d="M713.5,643.1c0-1.7-0.1-3.1-0.1-4.4h2.8l0.1,2.8h0.1c0.8-1.9,2.8-3.1,5-3.1c0.4,0,0.6,0,0.9,0.1v2.4
			c-0.3-0.1-0.7-0.1-1.1-0.1c-2.3,0-3.9,1.4-4.3,3.3c-0.1,0.4-0.1,0.8-0.1,1.2v7.5h-3.2v-9.7H713.5z"/>
		<path d="M727.2,646.2c0.1,3.4,2.8,4.9,6.1,4.9c2.3,0,3.7-0.3,4.9-0.7l0.6,1.8c-1.1,0.4-3.1,0.9-6,0.9c-5.5,0-8.8-2.9-8.8-7.1
			c0-4.3,3.2-7.6,8.4-7.6c5.8,0,7.3,4,7.3,6.6c0,0.5,0,0.9-0.1,1.2L727.2,646.2L727.2,646.2z M736.7,644.3c0-1.6-0.8-4.1-4.5-4.1
			c-3.3,0-4.7,2.4-5,4.1H736.7z"/>
		<path d="M638.9,677.3c0-1.5-0.1-2.6-0.1-3.8h2.8l0.2,2.3h0.1c1-1.3,2.7-2.6,5.6-2.6c2.4,0,4.3,1.2,5,2.8h0.1
			c0.6-0.8,1.3-1.4,2-1.8c1.1-0.6,2.2-1,3.9-1c2.4,0,5.9,1.2,5.9,6.1v8.3h-3.2v-7.9c0-2.7-1.3-4.3-3.9-4.3c-1.9,0-3.3,1.1-3.9,2.3
			c-0.2,0.4-0.3,0.8-0.3,1.3v8.7h-3.2v-8.4c0-2.2-1.3-3.8-3.7-3.8c-2,0-3.5,1.3-4,2.5c-0.2,0.4-0.2,0.8-0.2,1.3v8.5h-3.2v-10.5
			L638.9,677.3L638.9,677.3z"/>
		<path d="M679.4,687.5l-0.3-1.8H679c-1,1.1-2.9,2.1-5.5,2.1c-3.6,0-5.5-2-5.5-4c0-3.4,3.8-5.3,10.7-5.2v-0.3c0-1.1-0.4-3.3-4.1-3.2
			c-1.7,0-3.4,0.4-4.6,1l-0.7-1.7c1.5-0.7,3.6-1.2,5.9-1.2c5.5,0,6.8,2.9,6.8,5.7v5.2c0,1.2,0.1,2.4,0.3,3.4H679.4z M678.9,680.4
			c-3.5-0.1-7.5,0.4-7.5,3.1c0,1.7,1.4,2.4,3,2.4c2.3,0,3.8-1.2,4.3-2.3c0.1-0.3,0.2-0.6,0.2-0.8V680.4z"/>
		<path d="M687.1,677.3c0-1.5-0.1-2.6-0.1-3.8h2.9l0.2,2.3h0.1c0.9-1.3,3-2.6,5.9-2.6c2.5,0,6.3,1.2,6.3,6v8.4h-3.2v-8.1
			c0-2.3-1.1-4.2-4.1-4.2c-2.1,0-3.8,1.2-4.4,2.6c-0.1,0.3-0.2,0.8-0.2,1.2v8.5h-3.2v-10.3L687.1,677.3L687.1,677.3z"/>
		<path d="M717.4,687.5l-0.3-1.8H717c-1,1.1-2.9,2.1-5.5,2.1c-3.6,0-5.5-2-5.5-4c0-3.4,3.8-5.3,10.7-5.2v-0.3c0-1.1-0.4-3.3-4.1-3.2
			c-1.7,0-3.4,0.4-4.6,1l-0.7-1.7c1.5-0.7,3.6-1.2,5.9-1.2c5.5,0,6.8,2.9,6.8,5.7v5.2c0,1.2,0.1,2.4,0.3,3.4H717.4z M716.9,680.4
			c-3.5-0.1-7.5,0.4-7.5,3.1c0,1.7,1.4,2.4,3,2.4c2.3,0,3.8-1.2,4.3-2.3c0.1-0.3,0.2-0.6,0.2-0.8V680.4z"/>
		<path d="M740.5,673.5c-0.1,1-0.2,2.1-0.2,3.8v8.1c0,3.2-0.8,5.2-2.5,6.4c-1.8,1.3-4.2,1.7-6.5,1.7c-2.2,0-4.5-0.4-6-1.2l0.8-2
			c1.2,0.6,3,1.1,5.3,1.1c3.3,0,5.7-1.4,5.7-4.9v-1.6H737c-1,1.3-2.9,2.4-5.7,2.4c-4.4,0-7.6-3-7.6-6.9c0-4.8,3.9-7.4,8.1-7.4
			c3.1,0,4.8,1.3,5.6,2.4h0.1l0.1-2.1h2.9L740.5,673.5L740.5,673.5z M737.1,679c0-0.4,0-0.8-0.2-1.1c-0.6-1.5-2.2-2.7-4.6-2.7
			c-3.1,0-5.3,2.1-5.3,5.3c0,2.7,1.8,5.1,5.3,5.1c2,0,3.8-1,4.5-2.6c0.2-0.4,0.3-0.9,0.3-1.4V679z"/>
		<path d="M747.4,681c0.1,3.4,2.8,4.9,6.1,4.9c2.3,0,3.7-0.3,4.9-0.7l0.6,1.8c-1.1,0.4-3.1,0.9-6,0.9c-5.5,0-8.8-2.9-8.8-7.1
			c0-4.3,3.2-7.6,8.4-7.6c5.8,0,7.3,4,7.3,6.6c0,0.5,0,0.9-0.1,1.2L747.4,681L747.4,681z M756.9,679.1c0-1.6-0.8-4.1-4.5-4.1
			c-3.3,0-4.7,2.4-5,4.1H756.9z"/>
		<path d="M763.9,677.9c0-1.7-0.1-3.1-0.1-4.4h2.8l0.1,2.8h0.1c0.8-1.9,2.8-3.1,5-3.1c0.4,0,0.6,0,0.9,0.1v2.4
			c-0.3-0.1-0.7-0.1-1.1-0.1c-2.3,0-3.9,1.4-4.3,3.3c-0.1,0.4-0.1,0.8-0.1,1.2v7.5H764L763.9,677.9L763.9,677.9z"/>
	</g>
</g>
</svg>
